<svg width="226" height="46" viewBox="0 0 226 46" fill="none" xmlns="http://www.w3.org/2000/svg">
<path d="M23 23L27.0506 7.86842C27.4231 6.51822 28.3077 5.30769 29.6113 4.56275C32.2186 3.07287 35.5709 3.95749 37.0607 6.56478C37.7591 7.7753 37.9453 9.07895 37.7126 10.336M23 23L18.9494 7.86842C18.5769 6.51822 18.7632 5.02834 19.5081 3.7247C20.998 1.11741 24.3502 0.232792 26.9575 1.72267C28.1215 2.37449 28.9595 3.44534 29.3785 4.65587M23 23L7.86842 18.9494C6.51822 18.5769 5.30769 17.6923 4.56275 16.3887C3.07287 13.7814 3.95749 10.4291 6.56478 8.93927C7.72874 8.24089 9.07895 8.05466 10.336 8.28745M23 23L7.86842 27.0506C6.51822 27.4231 5.02834 27.2368 3.7247 26.4919C1.11741 25.002 0.232792 21.6498 1.72267 19.0425C2.37449 17.8785 3.44534 17.0405 4.65587 16.6215M23 23L18.9494 38.1316C18.5769 39.4818 17.6923 40.6923 16.3887 41.4372C13.7814 42.9271 10.4291 42.0425 8.93927 39.4352C8.24089 38.2713 8.05466 36.9211 8.28745 35.664M23 23L27.0506 38.1316C27.4231 39.4818 27.2368 40.9717 26.4919 42.2753C25.002 44.8826 21.6498 45.7672 19.0425 44.2773C17.8785 43.6255 17.0405 42.5547 16.6215 41.3441M23 23L34.081 34.1275C35.0587 35.1053 35.664 36.502 35.664 37.9919C35.664 40.9717 33.2429 43.4393 30.2166 43.4393C28.8664 43.4393 27.6093 42.9271 26.6316 42.0891M23 23L38.1316 27.0506C39.4818 27.4231 40.6923 28.3077 41.4372 29.6113C42.9271 32.2186 42.0425 35.5709 39.4352 37.0607C38.2713 37.7591 36.9211 37.9453 35.664 37.7126M23 23L38.1316 18.9494C39.4818 18.5769 40.9717 18.7632 42.2753 19.5081C44.8826 20.998 45.7672 24.3502 44.2773 26.9575C43.6255 28.1215 42.5547 28.9595 41.3441 29.3785M23 23L34.1275 11.919C35.1053 10.9413 36.502 10.336 37.9919 10.336C40.9717 10.336 43.4393 12.7571 43.4393 15.7834C43.4393 17.1336 42.9271 18.3907 42.0891 19.3684M23 23L11.919 11.919C10.9413 10.9413 10.336 9.54453 10.336 8.05466C10.336 5.0749 12.7571 2.60729 15.7834 2.60729C17.1336 2.60729 18.3907 3.11943 19.3684 3.95749C18.9028 3.63158 18.2976 3.44534 17.6923 3.44534C16.0628 3.44534 14.7126 4.79555 14.7126 6.4251C14.7126 7.26316 15.0385 8.0081 15.5972 8.52024L20.4858 13.4089M10.336 8.33401C9.77733 8.28745 9.17206 8.42713 8.61336 8.70648C7.2166 9.54453 6.70445 11.3603 7.54251 12.7571C7.96154 13.4555 8.61336 13.9211 9.3583 14.1538L16.0162 15.9231M19.3684 3.91093C18.3907 3.07287 17.1336 2.56073 15.7834 2.56073C12.7571 2.56073 10.336 5.02834 10.336 8.0081C10.336 9.49798 10.9413 10.8947 11.919 11.8725L23 22.9534M4.70243 16.668C4.19028 16.9008 3.7247 17.3198 3.39878 17.8785C2.56073 19.2753 3.07287 21.0911 4.46963 21.9292C5.16802 22.3482 6.00607 22.4413 6.70445 22.2085L13.3623 20.4393M3.95749 26.6316C3.63158 27.0972 3.44534 27.7024 3.44534 28.3077C3.44534 29.9372 4.79555 31.2874 6.4251 31.2874C7.26316 31.2874 8.0081 30.9615 8.52024 30.4028L13.4089 25.5142M8.33401 35.664C8.28745 36.2227 8.42713 36.8279 8.70648 37.3866C9.54453 38.7834 11.3603 39.2955 12.7571 38.4575C13.4555 38.0385 13.9211 37.3866 14.1538 36.6417L15.9231 29.9838M3.91093 26.6316C3.07287 27.6093 2.56073 28.8664 2.56073 30.2166C2.56073 33.2429 5.02834 35.664 8.0081 35.664C9.49798 35.664 10.8947 35.0587 11.8725 34.081L22.9534 23M16.668 41.2976C16.9008 41.8097 17.3198 42.2753 17.8785 42.6012C19.2753 43.4393 21.0911 42.9271 21.9292 41.5304C22.3482 40.832 22.4413 39.9939 22.2085 39.2955L20.4393 32.6377M26.6316 42.0425C27.0972 42.3684 27.7024 42.5547 28.3077 42.5547C29.9372 42.5547 31.2874 41.2045 31.2874 39.5749C31.2874 38.7368 30.9615 37.9919 30.4028 37.4798L25.5607 32.5911M35.664 37.666C36.2227 37.7126 36.8279 37.5729 37.3866 37.2935C38.7834 36.4555 39.2955 34.6397 38.4575 33.2429C38.0385 32.5445 37.3866 32.0789 36.6417 31.8462L29.9838 30.0769M41.2976 29.332C41.8097 29.0992 42.2753 28.6802 42.6012 28.1215C43.4393 26.7247 42.9271 24.9089 41.5304 24.0709C40.832 23.6518 39.9939 23.5587 39.2955 23.7915L32.6377 25.5607M42.0425 19.3684C42.3684 18.9028 42.5547 18.2976 42.5547 17.6923C42.5547 16.0628 41.2045 14.7126 39.5749 14.7126C38.7368 14.7126 37.9919 15.0385 37.4798 15.5972L32.5911 20.4393M37.666 10.336C37.7126 9.77733 37.5729 9.17206 37.2935 8.61336C36.4555 7.2166 34.6397 6.70445 33.2429 7.54251C32.5445 7.96154 32.0789 8.61336 31.8462 9.3583L30.0769 16.0162M29.332 4.70243C29.0992 4.19028 28.6802 3.7247 28.1215 3.39878C26.7247 2.56073 24.9089 3.07287 24.0709 4.46963C23.6518 5.16802 23.5587 6.00607 23.7915 6.70445L25.5607 13.3623" stroke="#4BE479" stroke-width="2" stroke-miterlimit="10"/>
<path d="M58.9473 35.5354V41.3099H59.7764V35.5354H61.7237V34.8413H57V35.5354H58.9473ZM62.7745 34.8413V41.3099H66.6017V40.6062H63.594V38.2636H66.0426V37.5695H63.594V35.5354H66.4957V34.8413H62.7745ZM68.9925 37.9647L67.1127 41.3099H67.9803L68.9154 39.565C68.9925 39.4108 69.0793 39.2469 69.1564 39.0734C69.2432 38.9095 69.3396 38.7263 69.4263 38.5335H69.4649C69.5709 38.7263 69.6673 38.9095 69.7541 39.0734C69.8505 39.2469 69.9373 39.4108 70.0144 39.565L70.9688 41.3099H71.875L69.9855 38.0129L71.7496 34.8413H70.882L70.024 36.4994C69.9469 36.6536 69.8794 36.7982 69.8023 36.9429C69.7348 37.0778 69.6577 37.2417 69.5613 37.4345H69.5227C69.4263 37.2417 69.3396 37.0778 69.2624 36.9429C69.1853 36.7982 69.1082 36.6536 69.0214 36.4994L68.1442 34.8413H67.238L68.9925 37.9647ZM73.9283 35.5354V41.3099H74.7574V35.5354H76.7144V34.8413H71.981V35.5354H73.9283ZM79.6547 39.9024L79.163 40.4712C79.4426 40.77 79.78 41.0014 80.1656 41.1749C80.5512 41.3388 80.9754 41.4256 81.4285 41.4256C81.7659 41.4256 82.0744 41.3774 82.3443 41.281C82.6142 41.1942 82.8456 41.0593 83.0288 40.8954C83.2216 40.7218 83.3662 40.529 83.4722 40.3073C83.5686 40.0856 83.6265 39.8446 83.6265 39.5843C83.6265 39.3529 83.5879 39.1408 83.5204 38.9577C83.4529 38.7745 83.3565 38.6203 83.2409 38.4853C83.1252 38.3503 82.9806 38.2347 82.8167 38.1286C82.6528 38.0322 82.4793 37.9358 82.2961 37.8587L81.3803 37.4634C81.2453 37.4152 81.12 37.3574 80.9947 37.2899C80.8694 37.2321 80.7537 37.1549 80.6476 37.0778C80.5416 36.9911 80.4548 36.9043 80.397 36.7886C80.3295 36.6826 80.3006 36.5476 80.3006 36.3934C80.3006 36.0945 80.4163 35.8631 80.6283 35.6993C80.8501 35.5257 81.1393 35.4486 81.5056 35.4486C81.8045 35.4486 82.0744 35.4968 82.3154 35.6125C82.5564 35.7185 82.7781 35.8631 82.9709 36.0559L83.4144 35.5257C83.183 35.2847 82.9035 35.0919 82.5757 34.9473C82.2479 34.8027 81.8912 34.7256 81.5056 34.7256C81.2068 34.7256 80.9368 34.7738 80.6958 34.8509C80.4452 34.9377 80.2331 35.063 80.0499 35.2172C79.8668 35.3715 79.7318 35.5547 79.6258 35.7571C79.5294 35.9692 79.4715 36.2005 79.4715 36.4416C79.4715 36.6826 79.5101 36.885 79.5968 37.0682C79.674 37.2513 79.7704 37.4056 79.8957 37.5309C80.021 37.6659 80.1656 37.7816 80.3199 37.8683C80.4837 37.9647 80.638 38.0418 80.7826 38.1093L81.7081 38.5142C81.8623 38.5817 82.0069 38.6492 82.1322 38.7167C82.2672 38.7841 82.3829 38.8613 82.4793 38.9384C82.566 39.0252 82.6432 39.1216 82.701 39.2372C82.7589 39.3529 82.7878 39.4879 82.7878 39.6518C82.7878 39.9699 82.6624 40.2206 82.4311 40.4134C82.1901 40.6158 81.8623 40.7122 81.4381 40.7122C81.1007 40.7122 80.7729 40.6351 80.4645 40.4905C80.156 40.3362 79.886 40.1434 79.6547 39.9024ZM84.7447 34.8413V38.6395C84.7447 39.1601 84.8026 39.5939 84.9279 39.9506C85.0436 40.3073 85.2075 40.5965 85.4099 40.8086C85.622 41.0303 85.863 41.1942 86.1522 41.281C86.4414 41.3774 86.7499 41.4256 87.0777 41.4256C87.4055 41.4256 87.7043 41.3774 87.9935 41.281C88.2731 41.1942 88.5141 41.0303 88.7262 40.8086C88.9286 40.5965 89.0925 40.3073 89.2082 39.9506C89.3335 39.5939 89.3914 39.1601 89.3914 38.6395V34.8413H88.6009V38.6588C88.6009 39.0444 88.5623 39.3722 88.4852 39.6325C88.4081 39.8928 88.2924 40.1049 88.1574 40.2688C88.0224 40.423 87.8586 40.5387 87.6754 40.6062C87.4922 40.6736 87.2898 40.7122 87.0777 40.7122C86.8656 40.7122 86.6632 40.6736 86.48 40.6062C86.2968 40.5387 86.1426 40.423 86.0076 40.2688C85.8727 40.1049 85.7666 39.8928 85.6799 39.6325C85.6027 39.3722 85.5642 39.0444 85.5642 38.6588V34.8413H84.7447ZM91.0206 34.8413V41.3099H91.7725V37.7526C91.7725 37.4634 91.7629 37.1453 91.734 36.7982C91.7147 36.4512 91.6858 36.1331 91.6665 35.8439H91.705L92.216 37.2803L93.4692 40.664H93.9319L95.1755 37.2803L95.6961 35.8439H95.7347C95.7154 36.1331 95.6865 36.4512 95.6672 36.7982C95.6383 37.1453 95.6286 37.4634 95.6286 37.7526V41.3099H96.4095V34.8413H95.4455L94.2019 38.3118L93.7488 39.6325H93.7102L93.2378 38.3118L91.9846 34.8413H91.0206ZM98.0676 34.8413V41.3099H98.8292V37.7526C98.8292 37.4634 98.8099 37.1453 98.781 36.7982C98.7617 36.4512 98.7328 36.1331 98.7135 35.8439H98.7521L99.2727 37.2803L100.516 40.664H100.979L102.223 37.2803L102.743 35.8439H102.782C102.762 36.1331 102.734 36.4512 102.714 36.7982C102.685 37.1453 102.676 37.4634 102.676 37.7526V41.3099H103.457V34.8413H102.493L101.249 38.3118L100.796 39.6325H100.757L100.285 38.3118L99.0317 34.8413H98.0676ZM107.862 38.6781H105.924L106.223 37.6948C106.349 37.3285 106.455 36.9718 106.561 36.6151C106.667 36.2584 106.773 35.8921 106.869 35.5161H106.908C107.014 35.8921 107.12 36.2584 107.226 36.6151C107.332 36.9718 107.438 37.3285 107.554 37.6948L107.862 38.6781ZM108.074 39.3433L108.682 41.3099H109.559L107.371 34.8413H106.445L104.257 41.3099H105.095L105.712 39.3433H108.074ZM111.178 37.9069V35.5064H112.258C112.769 35.5064 113.155 35.5932 113.425 35.7571C113.695 35.9306 113.83 36.2295 113.83 36.6536C113.83 37.0778 113.695 37.3959 113.425 37.5984C113.155 37.8105 112.769 37.9069 112.258 37.9069H111.178ZM113.907 41.3099H114.832L113.193 38.4949C113.637 38.3793 113.984 38.1768 114.254 37.8683C114.514 37.5695 114.649 37.1646 114.649 36.6536C114.649 36.3259 114.591 36.0367 114.475 35.8149C114.369 35.5836 114.205 35.3908 114.013 35.2462C113.81 35.1016 113.569 35.0052 113.29 34.9377C113.01 34.8798 112.711 34.8413 112.374 34.8413H110.359V41.3099H111.178V38.5817H112.345L113.907 41.3099ZM115.97 34.8413V41.3099H116.789V34.8413H115.97ZM118.004 40.8182V41.3099H122.458V40.6062H119.016L122.429 35.3233V34.8413H118.303V35.5354H121.397L118.004 40.8182ZM126.333 38.6781H124.386L124.694 37.6948C124.81 37.3285 124.925 36.9718 125.032 36.6151C125.128 36.2584 125.234 35.8921 125.33 35.5161H125.369C125.475 35.8921 125.581 36.2584 125.687 36.6151C125.793 36.9718 125.909 37.3285 126.024 37.6948L126.333 38.6781ZM126.535 39.3433L127.143 41.3099H128.02L125.832 34.8413H124.906L122.718 41.3099H123.557L124.183 39.3433H126.535ZM129.765 35.5354V41.3099H130.594V35.5354H132.551V34.8413H127.818V35.5354H129.765ZM133.592 34.8413V41.3099H134.412V34.8413H133.592ZM138.451 41.4256C138.865 41.4256 139.232 41.3485 139.569 41.1942C139.916 41.0303 140.205 40.8086 140.446 40.5194C140.697 40.2205 140.89 39.8735 141.025 39.4493C141.16 39.0348 141.227 38.5624 141.227 38.0515C141.227 37.5309 141.16 37.0778 141.025 36.6633C140.89 36.2488 140.697 35.9017 140.446 35.6221C140.205 35.3329 139.916 35.1112 139.569 34.957C139.232 34.8027 138.865 34.7256 138.451 34.7256C138.046 34.7256 137.67 34.8027 137.333 34.957C136.995 35.1016 136.706 35.3233 136.465 35.6125C136.224 35.8921 136.031 36.2391 135.896 36.6536C135.761 37.0682 135.694 37.5309 135.694 38.0515C135.694 38.5624 135.761 39.0348 135.896 39.4493C136.031 39.8735 136.224 40.2205 136.465 40.5194C136.706 40.8086 136.995 41.0303 137.333 41.1942C137.67 41.3485 138.046 41.4256 138.451 41.4256ZM138.451 40.7122C138.162 40.7122 137.901 40.6447 137.67 40.5194C137.439 40.3941 137.236 40.2205 137.072 39.9795C136.899 39.7482 136.773 39.4686 136.677 39.1505C136.59 38.8227 136.542 38.4564 136.542 38.0515C136.542 37.6466 136.59 37.2899 136.677 36.9621C136.773 36.644 136.899 36.3644 137.072 36.1427C137.236 35.921 137.439 35.7475 137.67 35.6318C137.901 35.5064 138.162 35.4486 138.451 35.4486C138.74 35.4486 139 35.5064 139.241 35.6318C139.473 35.7475 139.675 35.921 139.839 36.1427C140.003 36.3644 140.138 36.644 140.225 36.9621C140.321 37.2899 140.369 37.6466 140.369 38.0515C140.369 38.4564 140.321 38.8227 140.225 39.1505C140.138 39.4686 140.003 39.7482 139.839 39.9795C139.675 40.2205 139.473 40.3941 139.241 40.5194C139 40.6447 138.74 40.7122 138.451 40.7122ZM142.5 34.8413V41.3099H143.271V37.9262C143.271 37.5888 143.261 37.2513 143.242 36.9139C143.223 36.5669 143.194 36.2391 143.165 35.9113H143.203L143.907 37.2417L146.25 41.3099H147.098V34.8413H146.317V38.1864C146.317 38.5239 146.337 38.8709 146.356 39.2276C146.375 39.5747 146.404 39.9217 146.423 40.2495H146.375L145.681 38.9095L143.348 34.8413H142.5ZM153.384 38.6781H151.436L151.745 37.6948C151.86 37.3285 151.976 36.9718 152.082 36.6151C152.188 36.2584 152.285 35.8921 152.381 35.5161H152.42C152.526 35.8921 152.632 36.2584 152.738 36.6151C152.844 36.9718 152.959 37.3285 153.075 37.6948L153.384 38.6781ZM153.586 39.3433L154.193 41.3099H155.071L152.892 34.8413H151.957L149.768 41.3099H150.607L151.234 39.3433H153.586ZM155.871 34.8413V41.3099H156.652V37.9262C156.652 37.5888 156.642 37.2513 156.623 36.9139C156.594 36.5669 156.575 36.2391 156.546 35.9113H156.584L157.288 37.2417L159.631 41.3099H160.479V34.8413H159.698V38.1864C159.698 38.5239 159.708 38.8709 159.737 39.2276C159.756 39.5747 159.775 39.9217 159.794 40.2495H159.756L159.062 38.9095L156.719 34.8413H155.871ZM162.137 34.8413V41.3099H163.795C164.277 41.3099 164.711 41.2328 165.077 41.0882C165.453 40.9436 165.771 40.7315 166.032 40.4519C166.282 40.1723 166.475 39.8253 166.61 39.4204C166.745 39.0155 166.803 38.5624 166.803 38.0515C166.803 37.02 166.543 36.2198 166.032 35.6703C165.511 35.1208 164.749 34.8413 163.747 34.8413H162.137ZM163.689 40.6351H162.956V35.5161H163.689C164.451 35.5161 165.01 35.7282 165.395 36.162C165.771 36.5958 165.955 37.2224 165.955 38.0515C165.955 38.8709 165.771 39.5072 165.395 39.9603C165.01 40.4134 164.451 40.6351 163.689 40.6351ZM171.295 35.5354V41.3099H172.124V35.5354H174.072V34.8413H169.338V35.5354H171.295ZM175.932 37.9069V35.5064H177.022C177.523 35.5064 177.918 35.5932 178.188 35.7571C178.448 35.9306 178.583 36.2295 178.583 36.6536C178.583 37.0778 178.448 37.3959 178.188 37.5984C177.918 37.8105 177.523 37.9069 177.022 37.9069H175.932ZM178.67 41.3099H179.596L177.957 38.4949C178.4 38.3793 178.747 38.1768 179.007 37.8683C179.277 37.5695 179.403 37.1646 179.403 36.6536C179.403 36.3259 179.355 36.0367 179.239 35.8149C179.123 35.5836 178.969 35.3908 178.766 35.2462C178.574 35.1016 178.333 35.0052 178.053 34.9377C177.774 34.8798 177.465 34.8413 177.137 34.8413H175.122V41.3099H175.932V38.5817H177.108L178.67 41.3099ZM183.375 38.6781H181.437L181.745 37.6948C181.861 37.3285 181.977 36.9718 182.073 36.6151C182.179 36.2584 182.285 35.8921 182.382 35.5161H182.42C182.526 35.8921 182.632 36.2584 182.738 36.6151C182.844 36.9718 182.95 37.3285 183.076 37.6948L183.375 38.6781ZM183.587 39.3433L184.194 41.3099H185.071L182.883 34.8413H181.957L179.769 41.3099H180.608L181.234 39.3433H183.587ZM185.871 34.8413V41.3099H186.652V37.9262C186.652 37.5888 186.643 37.2513 186.614 36.9139C186.594 36.5669 186.565 36.2391 186.546 35.9113H186.585L187.279 37.2417L189.631 41.3099H190.479V34.8413H189.699V38.1864C189.699 38.5239 189.708 38.8709 189.727 39.2276C189.756 39.5747 189.776 39.9217 189.795 40.2495H189.756L189.053 38.9095L186.72 34.8413H185.871ZM192.157 39.9024L191.656 40.4712C191.945 40.77 192.282 41.0014 192.668 41.1749C193.053 41.3388 193.478 41.4256 193.931 41.4256C194.268 41.4256 194.577 41.3774 194.846 41.281C195.116 41.1942 195.338 41.0593 195.531 40.8954C195.724 40.7218 195.868 40.529 195.974 40.3073C196.071 40.0856 196.129 39.8446 196.129 39.5843C196.129 39.3529 196.09 39.1408 196.023 38.9577C195.955 38.7745 195.859 38.6203 195.743 38.4853C195.618 38.3503 195.483 38.2347 195.319 38.1286C195.155 38.0322 194.981 37.9358 194.798 37.8587L193.882 37.4634C193.747 37.4152 193.622 37.3574 193.497 37.2899C193.372 37.2321 193.256 37.1549 193.15 37.0778C193.044 36.9911 192.957 36.9043 192.899 36.7886C192.832 36.6826 192.803 36.5476 192.803 36.3934C192.803 36.0945 192.909 35.8631 193.131 35.6993C193.352 35.5257 193.641 35.4486 194.008 35.4486C194.307 35.4486 194.577 35.4968 194.818 35.6125C195.059 35.7185 195.28 35.8631 195.473 36.0559L195.917 35.5257C195.685 35.2847 195.406 35.0919 195.078 34.9473C194.75 34.8027 194.393 34.7256 194.008 34.7256C193.709 34.7256 193.439 34.7738 193.188 34.8509C192.947 34.9377 192.735 35.063 192.552 35.2172C192.369 35.3715 192.234 35.5547 192.128 35.7571C192.022 35.9692 191.974 36.2005 191.974 36.4416C191.974 36.6826 192.012 36.885 192.089 37.0682C192.176 37.2513 192.273 37.4056 192.398 37.5309C192.523 37.6659 192.668 37.7816 192.822 37.8683C192.976 37.9647 193.131 38.0418 193.285 38.1093L194.21 38.5142C194.364 38.5817 194.509 38.6492 194.634 38.7167C194.769 38.7841 194.885 38.8613 194.972 38.9384C195.068 39.0252 195.145 39.1216 195.203 39.2372C195.261 39.3529 195.29 39.4879 195.29 39.6518C195.29 39.9699 195.165 40.2206 194.933 40.4134C194.692 40.6158 194.364 40.7122 193.94 40.7122C193.603 40.7122 193.275 40.6351 192.967 40.4905C192.658 40.3362 192.379 40.1434 192.157 39.9024ZM197.276 34.8413V41.3099H200.93V40.6062H198.095V34.8413H197.276ZM204.728 38.6781H202.79L203.099 37.6948C203.214 37.3285 203.33 36.9718 203.426 36.6151C203.532 36.2584 203.638 35.8921 203.735 35.5161H203.773C203.879 35.8921 203.985 36.2584 204.092 36.6151C204.198 36.9718 204.304 37.3285 204.429 37.6948L204.728 38.6781ZM204.94 39.3433L205.547 41.3099H206.424L204.236 34.8413H203.311L201.122 41.3099H201.961L202.588 39.3433H204.94ZM208.169 35.5354V41.3099H208.998V35.5354H210.955V34.8413H206.222V35.5354H208.169ZM211.997 34.8413V41.3099H212.816V34.8413H211.997ZM216.855 41.4256C217.27 41.4256 217.636 41.3485 217.974 41.1942C218.311 41.0303 218.61 40.8086 218.851 40.5194C219.101 40.2205 219.294 39.8735 219.429 39.4493C219.564 39.0348 219.632 38.5624 219.632 38.0515C219.632 37.5309 219.564 37.0778 219.429 36.6633C219.294 36.2488 219.101 35.9017 218.851 35.6221C218.61 35.3329 218.311 35.1112 217.974 34.957C217.636 34.8027 217.27 34.7256 216.855 34.7256C216.45 34.7256 216.074 34.8027 215.737 34.957C215.4 35.1016 215.11 35.3233 214.869 35.6125C214.628 35.8921 214.436 36.2391 214.301 36.6536C214.166 37.0682 214.098 37.5309 214.098 38.0515C214.098 38.5624 214.166 39.0348 214.301 39.4493C214.436 39.8735 214.628 40.2205 214.869 40.5194C215.11 40.8086 215.4 41.0303 215.737 41.1942C216.074 41.3485 216.45 41.4256 216.855 41.4256ZM216.855 40.7122C216.566 40.7122 216.306 40.6447 216.074 40.5194C215.843 40.3941 215.641 40.2205 215.477 39.9795C215.303 39.7482 215.178 39.4686 215.081 39.1505C214.995 38.8227 214.946 38.4564 214.946 38.0515C214.946 37.6466 214.995 37.2899 215.081 36.9621C215.178 36.644 215.303 36.3644 215.477 36.1427C215.641 35.921 215.843 35.7475 216.074 35.6318C216.306 35.5064 216.566 35.4486 216.855 35.4486C217.144 35.4486 217.405 35.5064 217.646 35.6318C217.877 35.7475 218.08 35.921 218.243 36.1427C218.407 36.3644 218.542 36.644 218.629 36.9621C218.725 37.2899 218.774 37.6466 218.774 38.0515C218.774 38.4564 218.725 38.8227 218.629 39.1505C218.542 39.4686 218.407 39.7482 218.243 39.9795C218.08 40.2205 217.877 40.3941 217.646 40.5194C217.405 40.6447 217.144 40.7122 216.855 40.7122ZM220.904 34.8413V41.3099H221.675V37.9262C221.675 37.5888 221.666 37.2513 221.646 36.9139C221.618 36.5669 221.598 36.2391 221.569 35.9113H221.608L222.312 37.2417L224.654 41.3099H225.503V34.8413H224.722V38.1864C224.722 38.5239 224.731 38.8709 224.76 39.2276C224.78 39.5747 224.799 39.9217 224.818 40.2495H224.78L224.085 38.9095L221.743 34.8413H220.904Z" fill="#85E1F6"/>
<path d="M74.8913 6.58153C77.2102 6.58153 79.3583 8.26581 79.3583 8.29022L81.1646 6.06893C81.0426 5.97129 78.2599 3.72559 74.8913 3.72559C72.7432 3.72559 71.059 4.57993 69.4235 5.38545C67.5684 6.28862 65.6644 7.21619 62.8084 7.21619H56.2422V10.0721H61.3927V27.0858H64.2486V9.99891C67.0069 9.7304 69.0085 8.75401 70.6684 7.92407C72.2062 7.19178 73.4023 6.58153 74.8913 6.58153Z" fill="#85E1F6"/>
<path d="M73.1005 14.4416H69.439V12.5865H74.4674V9.99902H66.8516V21.7157H74.4674V19.1283H69.439V17.0291H73.1005V14.4416Z" fill="#85E1F6"/>
<path d="M89.5562 25.9385L84.3325 18.103L89.0192 11.0486L86.6514 9.46191L82.6238 15.5156L78.5962 9.46191L76.2284 11.0486L80.9151 18.103L75.6914 25.9385L78.0592 27.5252L82.6238 20.666L87.1884 27.5252L89.5562 25.9385Z" fill="#85E1F6"/>
<path d="M103.643 10.0723H90.4863V12.9282H95.6368V27.0859H98.4928V12.9282H103.643V10.0723Z" fill="#85E1F6"/>
<path d="M123.546 10.0723H118.151L114.685 22.9362L111.243 10.0723H105.824V27.0859H108.68V12.9282H109.046L112.854 27.0859H116.516L120.324 12.9282H120.69V27.0859H123.546V10.0723Z" fill="#85E1F6"/>
<path d="M140.243 26.6465L134.848 10.0723H131.26L125.865 26.6465L128.575 27.5253L129.405 24.9623H136.703L137.533 27.5253L140.243 26.6465ZM130.332 22.1063L133.066 13.7581L135.776 22.1063H130.332Z" fill="#85E1F6"/>
<path d="M148.88 16.7859C146.097 16.1024 145.243 15.6874 145.243 14.467C145.243 12.7339 147.586 12.5874 148.294 12.5874C150.173 12.5874 151.833 13.0268 152.834 13.7835L154.567 11.5134C152.517 9.97554 149.758 9.73145 148.294 9.73145C144.217 9.73145 142.387 12.0992 142.387 14.467C142.387 18.0796 145.731 18.9339 148.172 19.5686C151.076 20.3009 152.273 20.7891 152.273 22.5466C152.273 23.0348 152.151 23.7427 151.15 24.2309C149.368 25.0852 145.804 24.6703 143.363 22.6687L141.557 24.8899C143.656 26.5742 146.414 27.5018 148.928 27.5018C150.173 27.5018 151.369 27.2821 152.37 26.7939C154.128 25.964 155.129 24.4262 155.129 22.5466C155.129 18.3969 151.516 17.4694 148.88 16.7859Z" fill="#85E1F6"/>
<path d="M169.674 10.0723H156.518V12.9282H161.668V27.0859H164.524V12.9282H169.674V10.0723Z" fill="#85E1F6"/>
<path d="M182.354 10.0723H171.857V27.0859H182.354V24.23H174.713V19.8362H180.376V16.9802H174.713V12.9282H182.354V10.0723Z" fill="#85E1F6"/>
<path d="M195.75 22.448C195.652 22.1551 195.53 21.8866 195.384 21.6425C196.043 21.3008 196.556 20.8858 196.922 20.4953C197.971 19.3968 198.557 17.9078 198.557 16.2968C198.557 12.2447 195.286 10.0723 192.211 10.0723H185.254V27.0859H188.11V22.3992H191.771C192.406 22.3992 192.845 22.741 193.065 23.4244L193.114 23.5465C193.993 25.4505 195.945 27.5009 198.899 27.5009V24.6449C196.971 24.6449 196.019 23.0095 195.75 22.448ZM188.11 19.5433V12.9282H192.211C194.603 12.9282 195.701 14.6613 195.701 16.2968C195.701 17.1511 195.408 17.9566 194.847 18.5181C194.212 19.2015 193.236 19.5433 192.04 19.5433H188.11Z" fill="#85E1F6"/>
<path d="M201.355 24.499V27.0865H203.943V24.499H201.355Z" fill="#85E1F6"/>
<path d="M220.147 26.6465L214.752 10.0723H211.164L205.77 26.6465L208.479 27.5253L209.309 24.9623H216.608L217.437 27.5253L220.147 26.6465ZM210.237 22.1063L212.97 13.7581L215.68 22.1063H210.237Z" fill="#85E1F6"/>
<path d="M222.488 10.0723V27.0859H225.344V10.0723H222.488Z" fill="#85E1F6"/>
</svg>
